<?xml version="1.0" encoding="UTF-8" standalone="no"?>
<svg
   width="100"
   height="100"
   viewBox="0 0 100 100"
   fill="none"
   version="1.1"
   id="svg132"
   sodipodi:docname="elc-logo.svg"
   inkscape:version="1.2.2 (b0a8486541, 2022-12-01)"
   xmlns:inkscape="http://www.inkscape.org/namespaces/inkscape"
   xmlns:sodipodi="http://sodipodi.sourceforge.net/DTD/sodipodi-0.dtd"
   xmlns="http://www.w3.org/2000/svg"
   xmlns:svg="http://www.w3.org/2000/svg">
  <sodipodi:namedview
     id="namedview134"
     pagecolor="#ffffff"
     bordercolor="#000000"
     borderopacity="0.25"
     inkscape:showpageshadow="2"
     inkscape:pageopacity="0.0"
     inkscape:pagecheckerboard="0"
     inkscape:deskcolor="#d1d1d1"
     showgrid="false"
     inkscape:zoom="3.5283781"
     inkscape:cx="152.47799"
     inkscape:cy="100.04597"
     inkscape:window-width="1916"
     inkscape:window-height="1157"
     inkscape:window-x="0"
     inkscape:window-y="21"
     inkscape:window-maximized="1"
     inkscape:current-layer="svg132" />
  <g
     clip-path="url(#clipPath350)"
     id="g125"
     transform="matrix(2.0781771,0,0,2.0781771,-1.9239012e-7,5.0759223e-4)">
    <path
       d="M 32.431,26.2586 13.4315,19.0699 v -3.888 L 31.0419,8.49013 32.431,12.4572 18.9967,17.1245 32.3972,21.741 Z m -18.9995,2.7106 11.4974,-4.3708 5.8476,2.2249 -11.7798,4.0885 13.4005,4.6278 -1.3892,3.9529 -17.5765,-6.6353 z M 48,23.9998 C 48,19.253 46.5924,14.6129 43.9553,10.6661 41.3181,6.71931 37.5698,3.64316 33.1844,1.82666 28.799,0.010155 23.9734,-0.465126 19.3178,0.46092 14.6623,1.38697 10.3859,3.67275 7.02944,7.02921 3.67299,10.3857 1.38721,14.6621 0.461164,19.3176 -0.464881,23.9732 0.0103992,28.7988 1.8269,33.1842 c 1.8165,4.3854 4.89264,8.1337 8.8394,10.7709 3.9468,2.6371 8.5869,4.0447 13.3337,4.0447 6.3652,0 12.4697,-2.5286 16.9705,-7.0294 C 45.4714,36.4695 48,30.365 48,23.9998 Z"
       fill="#005454"
       id="path85" />
    <path
       d="m 75.1396,4.63916 h 8.3859 v 1.91435 h -6.3106 v 4.13079 h 5.4353 v 1.8946 h -5.4353 v 4.3963 h 6.5139 v 1.9143 h -8.5892 z"
       fill="#005454"
       id="path87" />
    <path
       d="m 85.1553,8.26172 h 2.1374 l 2.911,8.73598 h 0.1497 l 2.8913,-8.73598 h 2.1995 l -3.775,10.62778 h -2.7078 z"
       fill="#005454"
       id="path89" />
    <path
       d="m 96.4912,13.5953 c 0,-3.3572 2.3831,-5.59628 5.2318,-5.59628 3.239,0 5.131,2.29838 5.131,5.47488 v 0.6437 h -8.2846 c 0.0197,2.0753 1.2819,3.2979 3.2556,3.2979 1.324,0 2.567,-0.7341 2.934,-2.0584 l 1.891,0.4688 c -0.652,2.0978 -2.504,3.3402 -4.825,3.3402 -3.2359,-0.0113 -5.3338,-2.3125 -5.3338,-5.5708 z m 8.3068,-1.0165 c -0.101,-1.8127 -1.465,-2.82354 -3.075,-2.82354 -0.783,-0.01434 -1.542,0.26924 -2.1238,0.79344 -0.5819,0.5242 -0.9429,1.2498 -1.0101,2.0301 z"
       fill="#005454"
       id="path91" />
    <path
       d="m 109.44,8.26161 h 1.994 v 1.67153 h 0.144 c 0.237,-0.56318 0.632,-1.04558 1.138,-1.38882 0.506,-0.34325 1.1,-0.53265 1.711,-0.5453 h 0.754 v 2.01318 h -1.02 c -1.832,0 -2.707,1.4118 -2.707,3.4221 v 5.4551 h -2.014 z"
       fill="#005454"
       id="path93" />
    <path
       d="m 117.358,21.7413 h 1.363 c 0.847,0 1.282,-0.3671 1.59,-1.1295 l 0.669,-1.7308 h -0.508 L 116.686,8.26172 h 2.199 l 2.79,8.69368 h 0.161 l 3.012,-8.69368 h 2.211 l -5.06,13.25368 c -0.55,1.4117 -1.668,2.0555 -3.297,2.0555 h -1.344 z"
       fill="#005454"
       id="path95" />
    <path
       d="m 128.106,13.5755 c 0,-3.1962 2.361,-5.57648 5.577,-5.57648 3.216,0 5.579,2.39998 5.579,5.57648 0,3.1765 -2.363,5.5793 -5.599,5.5793 -3.236,0 -5.557,-2.3831 -5.557,-5.5793 z m 9.101,0 c 0,-2.1177 -1.469,-3.70448 -3.544,-3.70448 -2.075,0 -3.498,1.60938 -3.498,3.70448 0,2.1572 1.465,3.6706 3.501,3.6706 2.036,0 3.541,-1.5332 3.541,-3.6706 z"
       fill="#005454"
       id="path97" />
    <path
       d="m 141.846,8.26161 h 2.016 v 1.38635 h 0.163 c 0.447,-0.89788 1.505,-1.64894 3.053,-1.64894 2.403,0 3.888,1.79012 3.888,4.07158 v 6.8188 h -2.016 v -6.4659 c 0.016,-0.3297 -0.035,-0.6594 -0.15,-0.9687 -0.116,-0.3092 -0.294,-0.5916 -0.522,-0.8296 -0.229,-0.2381 -0.504,-0.4268 -0.809,-0.5545 -0.304,-0.12778 -0.631,-0.19188 -0.962,-0.18838 -0.353,-0.00205 -0.703,0.06706 -1.029,0.20318 -0.326,0.1362 -0.621,0.3366 -0.868,0.5892 -0.247,0.2527 -0.44,0.5525 -0.569,0.8816 -0.129,0.3291 -0.19,0.6807 -0.179,1.0338 v 6.2993 h -2.016 z"
       fill="#005454"
       id="path99" />
    <path
       d="m 153.346,13.5953 c 0,-3.3572 2.383,-5.59628 5.232,-5.59628 3.238,0 5.13,2.29838 5.13,5.47488 v 0.6437 h -8.284 c 0.02,2.0753 1.282,3.2979 3.255,3.2979 1.325,0 2.567,-0.7341 2.934,-2.0584 l 1.892,0.4688 c -0.65,2.0978 -2.505,3.3402 -4.826,3.3402 -3.235,-0.0113 -5.333,-2.3125 -5.333,-5.5708 z m 8.307,-1.0165 c -0.102,-1.8127 -1.466,-2.82354 -3.075,-2.82354 -0.782,-0.01034 -1.539,0.27464 -2.12,0.79804 -0.581,0.5234 -0.943,1.2467 -1.014,2.0255 z"
       fill="#005454"
       id="path101" />
    <path
       d="m 75.1396,29.0654 h 2.0753 V 41.424 h 5.9859 v 1.8946 h -8.0612 z"
       fill="#005454"
       id="path103" />
    <path
       d="m 85.0303,38.0246 c 0,-3.36 2.383,-5.5991 5.232,-5.5991 3.2386,0 5.1303,2.3012 5.1303,5.4777 v 0.6296 h -8.2842 c 0.0198,2.0781 1.2819,3.2979 3.2555,3.2979 1.3243,0 2.5666,-0.7313 2.9337,-2.0555 l 1.8917,0.4687 c -0.6522,2.0978 -2.5044,3.3374 -4.8254,3.3374 -3.2357,0 -5.3336,-2.2984 -5.3336,-5.5567 z m 8.3068,-1.0193 c -0.1017,-1.8099 -1.4654,-2.8094 -3.0748,-2.8094 -0.7797,-0.0107 -1.5349,0.2724 -2.1155,0.7929 -0.5807,0.5204 -0.9443,1.2403 -1.0186,2.0165 z"
       fill="#005454"
       id="path105" />
    <path
       d="m 99.8091,46.2494 h 4.6839 c 0.935,0 1.322,-0.4292 1.322,-1.3836 v -3.0776 h -0.161 c -0.387,0.6522 -1.384,1.7901 -3.442,1.7901 -2.9309,0 -4.9864,-2.3605 -4.9864,-5.5962 0,-3.2358 2.177,-5.5596 5.1104,-5.5596 0.664,-0.0159 1.322,0.134 1.914,0.4362 0.591,0.3022 1.098,0.7472 1.475,1.2947 h 0.144 v -1.4655 h 1.976 v 12.2062 c 0,2.1995 -1.321,3.1058 -3.318,3.1058 h -4.7179 z m 6.0739,-8.2645 c 0,-1.9962 -1.282,-3.6847 -3.298,-3.6847 -1.833,0 -3.2982,1.4428 -3.2982,3.6847 0,2.1967 1.3832,3.7242 3.2782,3.7242 1.807,0 3.318,-1.3637 3.318,-3.7242 z"
       fill="#005454"
       id="path107" />
    <path
       d="m 110.312,38.0046 c 0,-3.1962 2.059,-5.5793 4.99,-5.5793 0.678,-0.017 1.349,0.1387 1.951,0.4523 0.601,0.3136 1.113,0.7749 1.488,1.3407 h 0.163 v -1.5276 h 2.016 v 8.3069 c -0.004,0.0688 0.007,0.1377 0.032,0.2017 0.026,0.064 0.065,0.1215 0.116,0.1683 0.051,0.0468 0.111,0.0817 0.177,0.1022 0.066,0.0205 0.135,0.0261 0.203,0.0162 h 0.489 v 1.8325 h -1.443 c -0.875,0 -1.547,-0.5506 -1.547,-1.4682 h -0.144 c -0.366,0.558 -0.871,1.011 -1.465,1.3145 -0.594,0.3035 -1.257,0.447 -1.923,0.4163 -2.943,0 -5.103,-2.3407 -5.103,-5.5765 z m 8.655,0.0198 c 0,-2.3605 -1.508,-3.7242 -3.321,-3.7242 -1.892,0 -3.298,1.5444 -3.298,3.7242 0,2.2391 1.468,3.7045 3.321,3.7045 2.016,0 3.298,-1.6885 3.298,-3.7045 z"
       fill="#005454"
       id="path109" />
    <path
       d="m 124.117,41.5679 h 2.075 V 29.8192 h -2.075 v -1.7704 h 4.091 v 13.5191 h 2.056 v 1.7506 h -6.147 z"
       fill="#005454"
       id="path111" />
    <path
       d="m 137.489,36.1919 c 0,-4.1732 3.075,-7.3892 7.268,-7.3892 3.216,0 5.763,1.9116 6.697,4.8 h -2.239 c -0.711,-1.7308 -2.422,-2.8235 -4.458,-2.8235 -2.973,0 -5.111,2.3209 -5.111,5.4155 0,3.0946 2.138,5.4353 5.111,5.4353 2.016,0 3.767,-1.0786 4.458,-2.8489 h 2.239 c -0.914,2.9506 -3.501,4.8254 -6.697,4.8254 -4.213,-0.0028 -7.268,-3.1991 -7.268,-7.4146 z"
       fill="#005454"
       id="path113" />
    <path
       d="m 153.49,41.5679 h 2.087 V 29.8192 h -2.075 v -1.7704 h 4.08 v 13.5191 h 2.055 v 1.7506 h -6.147 z"
       fill="#005454"
       id="path115" />
    <path
       d="m 162.997,34.447 h -1.935 v -1.7506 h 3.953 v 10.6277 h -2.013 z m -0.328,-4.8848 c 0.016,-0.3483 0.166,-0.6772 0.418,-0.9181 0.252,-0.2409 0.587,-0.3753 0.936,-0.3753 0.349,0 0.684,0.1344 0.936,0.3753 0.252,0.2409 0.402,0.5698 0.418,0.9181 0.008,0.183 -0.021,0.3658 -0.085,0.5374 -0.064,0.1715 -0.163,0.3283 -0.289,0.4607 -0.127,0.1325 -0.279,0.2379 -0.447,0.3099 -0.169,0.072 -0.35,0.1092 -0.533,0.1092 -0.183,0 -0.365,-0.0372 -0.533,-0.1092 -0.168,-0.072 -0.32,-0.1774 -0.447,-0.3099 -0.127,-0.1324 -0.225,-0.2892 -0.289,-0.4607 -0.064,-0.1716 -0.093,-0.3544 -0.085,-0.5374 z"
       fill="#005454"
       id="path117" />
    <path
       d="m 168.655,32.6909 h 2.016 v 1.3836 h 0.152 c 0.449,-0.8951 1.508,-1.649 3.056,-1.649 2.402,0 3.888,1.793 3.888,4.0716 v 6.8216 h -2.016 v -6.4744 c 0.014,-0.3284 -0.038,-0.6564 -0.155,-0.9638 -0.116,-0.3075 -0.294,-0.5879 -0.523,-0.8242 -0.229,-0.2363 -0.503,-0.4235 -0.807,-0.55 -0.303,-0.1266 -0.629,-0.19 -0.958,-0.1862 -0.353,-0.002 -0.703,0.0671 -1.029,0.2032 -0.326,0.1362 -0.621,0.3366 -0.868,0.5892 -0.247,0.2527 -0.441,0.5525 -0.569,0.8816 -0.129,0.3291 -0.19,0.6806 -0.18,1.0338 v 6.2908 h -2.016 z"
       fill="#005454"
       id="path119" />
    <path
       d="m 182.233,34.447 h -1.934 v -1.7506 h 3.953 v 10.6277 h -2.013 z m -0.328,-4.8848 c 0.016,-0.3483 0.166,-0.6772 0.418,-0.9181 0.252,-0.2409 0.588,-0.3753 0.936,-0.3753 0.349,0 0.684,0.1344 0.936,0.3753 0.253,0.2409 0.402,0.5698 0.418,0.9181 0.009,0.183 -0.02,0.3658 -0.085,0.5374 -0.064,0.1715 -0.162,0.3283 -0.289,0.4607 -0.126,0.1325 -0.278,0.2379 -0.447,0.3099 -0.168,0.072 -0.35,0.1092 -0.533,0.1092 -0.183,0 -0.364,-0.0372 -0.533,-0.1092 -0.168,-0.072 -0.32,-0.1774 -0.447,-0.3099 -0.126,-0.1324 -0.225,-0.2892 -0.289,-0.4607 -0.064,-0.1716 -0.093,-0.3544 -0.085,-0.5374 z"
       fill="#005454"
       id="path121" />
    <path
       d="m 187.138,38.0048 c 0,-3.1369 2.278,-5.5793 5.455,-5.5793 2.422,0 4.478,1.3836 5.082,3.8683 l -1.934,0.4687 c -0.133,-0.7104 -0.517,-1.3494 -1.081,-1.8011 -0.564,-0.4517 -1.272,-0.6863 -1.994,-0.661 -2.055,0 -3.442,1.6263 -3.442,3.7044 0,2.1374 1.446,3.6847 3.462,3.6847 1.547,0 2.79,-0.9374 3.075,-2.4226 l 1.954,0.4461 c -0.59,2.4847 -2.669,3.8683 -5.083,3.8683 -3.275,0 -5.494,-2.4621 -5.494,-5.5765 z"
       fill="#005454"
       id="path123" />
  </g>
  <defs
     id="defs130">
    <clipPath
       id="clip0_40_4253">
      <rect
         width="197.70399"
         height="48"
         fill="#ffffff"
         id="rect127"
         x="0"
         y="0" />
    </clipPath>
    <clipPath
       clipPathUnits="userSpaceOnUse"
       id="clipPath350">
      <rect
         style="opacity:0.45;fill:#000000"
         id="rect352"
         width="53.003235"
         height="54.74255"
         x="-4.906786"
         y="-3.5690935" />
    </clipPath>
  </defs>
</svg>
